<svg width="" height="" viewBox="0 0 70 70" fill="none" xmlns="http://www.w3.org/2000/svg">
<g id="Frame">
<path id="Vector" fill-rule="evenodd" clip-rule="evenodd" d="M33.4002 4.79196C34.3904 4.23634 35.6096 4.23634 36.5983 4.79196C41.491 7.538 56.2144 15.8038 61.1085 18.5499C62.0988 19.104 62.7083 20.1307 62.7083 21.242C62.7083 26.734 62.7083 43.2643 62.7083 48.7563C62.7083 49.8676 62.0988 50.8942 61.1085 51.4499C56.2158 54.1959 41.4925 62.4618 36.5983 65.2078C35.6081 65.7634 34.389 65.7634 33.4002 65.2078C28.5075 62.4618 13.7842 54.1959 8.89001 51.4499C7.90126 50.8942 7.29167 49.869 7.29167 48.7578C7.29167 43.2657 7.29167 26.7355 7.29167 21.2434C7.29167 20.1322 7.90126 19.1055 8.89146 18.5499C13.7827 15.8038 28.509 7.538 33.4002 4.79196Z" fill="url(#paint0_linear_41_170)"/>
<path id="Vector_2" fill-rule="evenodd" clip-rule="evenodd" d="M7.735 50.1724C7.34709 49.6533 7.29167 49.1603 7.29167 48.4968C7.29167 43.0368 7.29167 26.6014 7.29167 21.1399C7.29167 20.0345 7.8998 19.0137 8.88709 18.4624C13.7623 15.7324 28.436 7.51471 33.3113 4.78326C34.2985 4.23055 35.6358 4.24221 36.6231 4.79492C41.4983 7.52492 56.1225 15.6726 60.9977 18.4026C61.3915 18.6243 61.6919 18.8912 61.9602 19.2426L7.735 50.1724Z" fill="url(#paint1_linear_41_170)"/>
<path id="Vector_3" fill-rule="evenodd" clip-rule="evenodd" d="M35 14.5833C46.2685 14.5833 55.4167 23.7314 55.4167 34.9999C55.4167 46.2685 46.2685 55.4166 35 55.4166C23.7315 55.4166 14.5833 46.2685 14.5833 34.9999C14.5833 23.7314 23.7315 14.5833 35 14.5833ZM35 24.7916C40.6335 24.7916 45.2083 29.3649 45.2083 34.9999C45.2083 40.6335 40.6335 45.2083 35 45.2083C29.3665 45.2083 24.7917 40.6335 24.7917 34.9999C24.7917 29.3649 29.365 24.7916 35 24.7916Z" fill="white"/>
<path id="Vector_4" fill-rule="evenodd" clip-rule="evenodd" d="M61.9573 19.2573C62.7098 19.9617 62.6952 21.0234 62.6952 21.859C62.6952 27.3934 62.6485 43.1346 62.7083 48.669C62.7142 49.2465 62.5231 49.8546 62.2373 50.3125L34.4065 35L61.9573 19.2573Z" fill="url(#paint2_linear_41_170)"/>
<path id="Vector_5" opacity="0.05" d="M35 14.5833C42.4783 14.5833 49.0029 18.6244 52.5598 24.6269L43.7033 29.6873C41.9081 26.756 38.6852 24.7917 35 24.7917C29.365 24.7917 24.7917 29.365 24.7917 35C24.7917 40.6335 29.3665 45.2083 35 45.2083C38.7479 45.2083 42.0175 43.1783 43.7923 40.164L52.7348 45.0844C49.2187 51.2487 42.5979 55.4167 35 55.4167C23.7315 55.4167 14.5833 46.2685 14.5833 35C14.5833 23.7315 23.7315 14.5833 35 14.5833ZM35 13.125C22.9381 13.125 13.125 22.9381 13.125 35C13.125 47.0619 22.9381 56.875 35 56.875C42.8269 56.875 50.1083 52.6342 54.0021 45.8062L54.7356 44.52L53.4377 43.8054L44.4952 38.885L43.2542 38.2025L42.5352 39.4231C40.9646 42.0919 38.0771 43.75 35 43.75C30.1758 43.75 26.25 39.8242 26.25 35C26.25 30.1758 30.1758 26.25 35 26.25C38.061 26.25 40.8494 27.8192 42.4594 30.4485L43.1987 31.656L44.4267 30.9546L53.2831 25.8942L54.5694 25.1592L53.814 23.8846C49.8823 17.2477 42.6737 13.125 35 13.125Z" fill="black"/>
<path id="Vector_6" opacity="0.07" d="M35 14.5834C42.4783 14.5834 49.0029 18.6245 52.5598 24.627L43.7033 29.6874C41.9081 26.7561 38.6852 24.7917 35 24.7917C29.365 24.7917 24.7917 29.3651 24.7917 35.0001C24.7917 40.6336 29.3665 45.2084 35 45.2084C38.7479 45.2084 42.0175 43.1784 43.7923 40.164L52.7348 45.0845C49.2188 51.2488 42.5979 55.4167 35 55.4167C23.7315 55.4167 14.5833 46.2686 14.5833 35.0001C14.5833 23.7315 23.7315 14.5834 35 14.5834ZM35 13.8542C23.3406 13.8542 13.8542 23.3407 13.8542 35.0001C13.8542 46.6595 23.3406 56.1459 35 56.1459C42.5658 56.1459 49.6038 52.0451 53.3677 45.4461L53.7352 44.803L53.0863 44.4457L44.1438 39.5253L43.524 39.184L43.1652 39.7936C41.4619 42.684 38.3338 44.4792 35 44.4792C29.7733 44.4792 25.5208 40.2267 25.5208 35.0001C25.5208 29.7734 29.7733 25.5209 35 25.5209C38.3177 25.5209 41.3379 27.2213 43.0821 30.068L43.451 30.6717L44.065 30.3203L52.9215 25.2599L53.5646 24.8924L53.1869 24.2551C49.385 17.8399 42.4171 13.8542 35 13.8542Z" fill="black"/>
</g>
<defs>
<linearGradient id="paint0_linear_41_170" x1="32.7833" y1="28.9084" x2="46.4231" y2="66.3832" gradientUnits="userSpaceOnUse">
<stop stop-color="#3940A4"/>
<stop offset="1" stop-color="#293091"/>
</linearGradient>
<linearGradient id="paint1_linear_41_170" x1="23.9604" y1="4.93201" x2="38.9185" y2="46.0278" gradientUnits="userSpaceOnUse">
<stop stop-color="#7B83EB"/>
<stop offset="1" stop-color="#5961C3"/>
</linearGradient>
<linearGradient id="paint2_linear_41_170" x1="45.2535" y1="18.7615" x2="57.9454" y2="53.6332" gradientUnits="userSpaceOnUse">
<stop stop-color="#5C65D6"/>
<stop offset="0.999" stop-color="#464EB0"/>
</linearGradient>
</defs>
</svg>
