<svg width="" height="" viewBox="0 0 70 70" fill="none" xmlns="http://www.w3.org/2000/svg">
<g id="Frame">
<path id="Vector" d="M35 23.3335C49.4975 23.3335 61.25 19.416 61.25 14.5835C61.25 9.751 49.4975 5.8335 35 5.8335C20.5025 5.8335 8.75 9.751 8.75 14.5835C8.75 19.416 20.5025 23.3335 35 23.3335Z" stroke="#9346FF" stroke-width="3" stroke-linecap="round" stroke-linejoin="round"/>
<path id="Vector_2" d="M8.75 14.5835V55.4168C8.75 57.7375 11.5156 59.9631 16.4384 61.604C21.3613 63.245 28.0381 64.1668 35 64.1668C41.9619 64.1668 48.6387 63.245 53.5616 61.604C58.4844 59.9631 61.25 57.7375 61.25 55.4168V14.5835" stroke="#9346FF" stroke-width="3" stroke-linecap="round" stroke-linejoin="round"/>
<path id="Vector_3" d="M8.75 35C8.75 37.3206 11.5156 39.5462 16.4384 41.1872C21.3613 42.8281 28.0381 43.75 35 43.75C41.9619 43.75 48.6387 42.8281 53.5616 41.1872C58.4844 39.5462 61.25 37.3206 61.25 35" stroke="#9346FF" stroke-width="3" stroke-linecap="round" stroke-linejoin="round"/>
</g>
</svg>
