<svg width="" height="" viewBox="0 0 70 70" fill="none" xmlns="http://www.w3.org/2000/svg">
<g id="Frame">
<path id="Vector" d="M61.5417 32.229L37.7709 8.45817C37.0417 7.729 36.0209 7.2915 35 7.2915C33.9792 7.2915 32.9584 7.729 32.2292 8.45817L27.125 13.5623L33.1042 19.5415C33.6875 19.2498 34.2709 19.104 35 19.104C37.4792 19.104 39.375 20.9998 39.375 23.479C39.375 24.2082 39.2292 24.7915 38.9375 25.3748L44.7709 31.2082C45.3542 30.9165 45.9375 30.7707 46.6667 30.7707C49.1459 30.7707 51.0417 32.6665 51.0417 35.1457C51.0417 37.6248 49.1459 39.5207 46.6667 39.5207C44.1875 39.5207 42.2917 37.6248 42.2917 35.1457C42.2917 34.4165 42.4375 33.8332 42.7292 33.2498L36.8959 27.4165C36.75 27.4165 36.6042 27.5623 36.4584 27.5623V42.729C38.2084 43.3123 39.375 44.9165 39.375 46.8123C39.375 49.2915 37.4792 51.1873 35 51.1873C32.5209 51.1873 30.625 49.2915 30.625 46.8123C30.625 44.9165 31.7917 43.3123 33.5417 42.729V27.4165C31.7917 26.8332 30.625 25.229 30.625 23.3332C30.625 22.604 30.7709 22.0207 31.0625 21.4373L25.0834 15.4582L8.45835 32.229C7.72919 32.9582 7.29169 33.979 7.29169 34.9998C7.29169 36.0207 7.72919 37.0415 8.45835 37.7707L32.2292 61.5415C32.9584 62.2707 33.9792 62.7082 35 62.7082C36.0209 62.7082 37.0417 62.2707 37.7709 61.5415L61.5417 37.7707C62.2709 37.0415 62.7084 36.0207 62.7084 34.9998C62.7084 33.979 62.2709 32.9582 61.5417 32.229Z" fill="#F4511E"/>
</g>
</svg>
