<svg width="" height="" viewBox="0 0 70 70" fill="none" xmlns="http://www.w3.org/2000/svg">
<g id="Frame">
<path id="Vector" d="M59.7916 7.29175H10.2083L14.5833 56.8751L35 62.7084L55.4166 56.8751L59.7916 7.29175Z" fill="#E65100"/>
<path id="Vector_2" d="M35 11.6667V58.1876L51.3333 53.5209L54.9792 11.6667H35Z" fill="#FF6D00"/>
<path id="Vector_3" d="M35 36.4583V30.6249H47.5417L46.5208 47.3958L35 51.1874V45.0624L40.9792 43.0208L41.4167 36.4583H35ZM47.9792 24.7916L48.4167 18.9583H35V24.7916H47.9792Z" fill="white"/>
<path id="Vector_4" d="M35 45.0624V51.1874L23.4792 47.3958L22.8959 39.3749H28.7292L29.0209 43.0208L35 45.0624ZM27.8542 24.7916H35V18.9583H21.7292L22.75 36.4583H35V30.6249H28.2917L27.8542 24.7916Z" fill="#EEEEEE"/>
</g>
</svg>
