<svg width="" height="" viewBox="0 0 70 70" fill="none" xmlns="http://www.w3.org/2000/svg">
<rect width="70" height="70" fill=""/>
<g id="portfolio">
<rect width="1440" height="3345" transform="translate(-759 -1566)" fill=""/>
<g id="Frame 9">
<g id="skills-content">
<g id="frontend">
<g id="illustrator">
<g id="Rectangle 7">
<rect x="-14" y="-15" width="400" height="100" rx="20" fill="black" fill-opacity="0.2"/>
<rect x="-15" y="-16" width="402" height="102" rx="21" stroke="black" stroke-opacity="0.25" stroke-width="2"/>
</g>
<g id="Frame">
<path id="Vector" d="M8.75 14.5833C8.75 11.3619 11.3619 8.75 14.5833 8.75H55.4167C58.6381 8.75 61.25 11.3619 61.25 14.5833V55.4167C61.25 58.6381 58.6381 61.25 55.4167 61.25H14.5833C11.3619 61.25 8.75 58.6381 8.75 55.4167V14.5833Z" fill="#FF5722"/>
<path id="Vector_2" d="M13.125 13.125V56.875H56.875V13.125H13.125ZM34.5494 45.2083L33.4381 40.9646H27.7273L26.6175 45.2083H22.1885L28.6679 24.4723H32.499L39.0221 45.2083H34.5494ZM44.9896 45.2083H40.9456V29.7996H44.9896V45.2083ZM44.555 27.3496C44.1598 27.7579 43.6275 27.9621 42.9523 27.9621C42.2771 27.9621 41.7448 27.7579 41.3496 27.3496C40.9544 26.9412 40.759 26.4279 40.759 25.811C40.759 25.184 40.9587 24.6721 41.3569 24.2725C41.755 23.8729 42.2887 23.6746 42.9523 23.6746C43.6158 23.6746 44.1481 23.8744 44.5477 24.2725C44.9473 24.6706 45.1456 25.184 45.1456 25.811C45.1456 26.4279 44.9487 26.9412 44.555 27.3496Z" fill="#1C0802"/>
<path id="Vector_3" d="M28.6401 37.4748H32.5135L30.5768 30.084L28.6401 37.4748Z" fill="#1C0802"/>
</g>
</g>
</g>
</g>
</g>
</g>
</svg>
