<svg width="" height="" viewBox="0 0 44 44" fill="none" xmlns="http://www.w3.org/2000/svg">
<path id="Vector" d="M22 0C17.6488 0 13.3953 1.29028 9.77746 3.70767C6.15958 6.12506 3.33979 9.56099 1.67466 13.581C0.00953226 17.6009 -0.426141 22.0244 0.422734 26.292C1.27161 30.5596 3.3669 34.4796 6.44366 37.5563C9.52041 40.6331 13.4404 42.7284 17.708 43.5773C21.9756 44.4261 26.3991 43.9905 30.419 42.3253C34.439 40.6602 37.8749 37.8404 40.2923 34.2225C42.7097 30.6047 44 26.3512 44 22C43.9938 16.1671 41.674 10.5749 37.5495 6.45045C33.4251 2.32599 27.8329 0.00615962 22 0ZM22 40.6154C18.3182 40.6154 14.7191 39.5236 11.6579 37.4781C8.59657 35.4326 6.21059 32.5253 4.80164 29.1238C3.39268 25.7223 3.02404 21.9793 3.74231 18.3683C4.46059 14.7573 6.23354 11.4403 8.83694 8.83693C11.4404 6.23353 14.7573 4.46058 18.3683 3.7423C21.9794 3.02403 25.7223 3.39267 29.1238 4.80163C32.5253 6.21058 35.4326 8.59656 37.4781 11.6578C39.5236 14.7191 40.6154 18.3182 40.6154 22C40.6098 26.9354 38.6467 31.667 35.1569 35.1569C31.667 38.6467 26.9354 40.6098 22 40.6154ZM25.3846 32.1538C25.3846 32.6027 25.2063 33.0331 24.889 33.3505C24.5716 33.6679 24.1411 33.8461 23.6923 33.8461C22.7947 33.8461 21.9338 33.4896 21.299 32.8548C20.6643 32.2201 20.3077 31.3592 20.3077 30.4615V22C19.8589 22 19.4284 21.8217 19.1111 21.5043C18.7937 21.187 18.6154 20.7565 18.6154 20.3077C18.6154 19.8589 18.7937 19.4284 19.1111 19.111C19.4284 18.7937 19.8589 18.6154 20.3077 18.6154C21.2054 18.6154 22.0662 18.972 22.701 19.6067C23.3357 20.2415 23.6923 21.1023 23.6923 22V30.4615C24.1411 30.4615 24.5716 30.6398 24.889 30.9572C25.2063 31.2746 25.3846 31.705 25.3846 32.1538ZM18.6154 12.6923C18.6154 12.1902 18.7643 11.6995 19.0432 11.282C19.3221 10.8646 19.7186 10.5392 20.1824 10.3471C20.6463 10.1549 21.1567 10.1047 21.6491 10.2026C22.1415 10.3006 22.5938 10.5423 22.9488 10.8973C23.3038 11.2524 23.5456 11.7047 23.6435 12.1971C23.7415 12.6895 23.6912 13.1999 23.4991 13.6637C23.307 14.1276 22.9816 14.524 22.5641 14.803C22.1467 15.0819 21.6559 15.2308 21.1539 15.2308C20.4806 15.2308 19.8349 14.9633 19.3589 14.4873C18.8828 14.0112 18.6154 13.3655 18.6154 12.6923Z" fill="#6E12D8"/>
</svg>
