<svg width="50" height="50" viewBox="0 0 50 50" fill="none" xmlns="http://www.w3.org/2000/svg">
<g id="InstagramLogo">
<path id="Vector" d="M25 15.625C23.1458 15.625 21.3332 16.1748 19.7915 17.205C18.2498 18.2351 17.0482 19.6993 16.3386 21.4123C15.6291 23.1254 15.4434 25.0104 15.8051 26.829C16.1669 28.6475 17.0598 30.318 18.3709 31.6291C19.682 32.9402 21.3525 33.8331 23.171 34.1949C24.9896 34.5566 26.8746 34.3709 28.5877 33.6614C30.3007 32.9518 31.7649 31.7502 32.795 30.2085C33.8252 28.6668 34.375 26.8542 34.375 25C34.3724 22.5144 33.3839 20.1313 31.6263 18.3737C29.8687 16.6161 27.4856 15.6276 25 15.625ZM25 31.25C23.7639 31.25 22.5555 30.8834 21.5277 30.1967C20.4999 29.5099 19.6988 28.5338 19.2258 27.3918C18.7527 26.2497 18.6289 24.9931 18.8701 23.7807C19.1112 22.5683 19.7065 21.4547 20.5806 20.5806C21.4547 19.7065 22.5683 19.1112 23.7807 18.8701C24.9931 18.6289 26.2497 18.7527 27.3918 19.2258C28.5338 19.6988 29.5099 20.4999 30.1967 21.5277C30.8834 22.5555 31.25 23.7639 31.25 25C31.25 26.6576 30.5915 28.2473 29.4194 29.4194C28.2473 30.5915 26.6576 31.25 25 31.25ZM34.375 4.6875H15.625C12.7251 4.6906 9.94495 5.84394 7.89445 7.89445C5.84394 9.94495 4.6906 12.7251 4.6875 15.625V34.375C4.6906 37.2749 5.84394 40.055 7.89445 42.1056C9.94495 44.1561 12.7251 45.3094 15.625 45.3125H34.375C37.2749 45.3094 40.055 44.1561 42.1056 42.1056C44.1561 40.055 45.3094 37.2749 45.3125 34.375V15.625C45.3094 12.7251 44.1561 9.94495 42.1056 7.89445C40.055 5.84394 37.2749 4.6906 34.375 4.6875ZM42.1875 34.375C42.1875 36.447 41.3644 38.4341 39.8993 39.8993C38.4341 41.3644 36.447 42.1875 34.375 42.1875H15.625C13.553 42.1875 11.5659 41.3644 10.1007 39.8993C8.6356 38.4341 7.8125 36.447 7.8125 34.375V15.625C7.8125 13.553 8.6356 11.5659 10.1007 10.1007C11.5659 8.6356 13.553 7.8125 15.625 7.8125H34.375C36.447 7.8125 38.4341 8.6356 39.8993 10.1007C41.3644 11.5659 42.1875 13.553 42.1875 15.625V34.375ZM37.5 14.8438C37.5 15.3073 37.3625 15.7604 37.105 16.1459C36.8475 16.5313 36.4814 16.8317 36.0532 17.0091C35.6249 17.1865 35.1537 17.2329 34.699 17.1425C34.2444 17.052 33.8267 16.8288 33.499 16.501C33.1712 16.1733 32.948 15.7556 32.8575 15.301C32.7671 14.8464 32.8135 14.3751 32.9909 13.9468C33.1683 13.5186 33.4687 13.1525 33.8541 12.895C34.2396 12.6375 34.6927 12.5 35.1562 12.5C35.7779 12.5 36.374 12.7469 36.8135 13.1865C37.2531 13.626 37.5 14.2221 37.5 14.8438Z" fill="white"/>
</g>
</svg>
