<svg width="" height="" viewBox="0 0 70 70" fill="none" xmlns="http://www.w3.org/2000/svg">
<g id="Frame">
<path id="Vector" d="M34.4896 36.3095C33.0342 33.963 31.9783 32.0176 30.5156 28.3543C28.0423 22.1666 45.5583 16.5753 38.4563 5.83179C41.5348 13.2532 27.4065 17.8412 26.094 24.0216C24.8938 29.7062 34.4823 36.3095 34.4896 36.3095Z" fill="#F44336"/>
<path id="Vector_2" d="M34.8221 25.1853C34.5421 28.8545 38.0727 30.8101 38.1748 33.4905C38.2565 35.6722 36.0646 37.4907 36.0646 37.4907C36.0646 37.4907 40.0429 36.7091 41.284 33.3812C42.6621 29.6857 38.6094 27.1555 39.0265 24.1966C39.4158 21.3703 47.8217 16.113 47.8217 16.113C47.8217 16.113 35.4535 16.9326 34.8221 25.1853Z" fill="#F44336"/>
<g id="Group">
<path id="Vector_3" d="M46.7892 36.5385C49.3471 35.9639 51.504 37.5928 51.504 39.4697C51.504 43.7003 45.64 47.6991 45.64 47.6991C45.64 47.6991 54.7181 46.617 54.7181 39.671C54.7181 35.0772 50.26 33.9295 46.7892 36.5385ZM42.4798 39.951C42.4798 39.951 45.3104 37.9341 46.0644 37.1772C39.1183 38.6516 23.259 38.8499 23.259 37.5695C23.259 36.3897 28.3733 35.1808 28.3733 35.1808C28.3733 35.1808 17.0377 35.0174 17.0377 38.3614C17.0377 41.8468 31.8762 42.0962 42.4798 39.951Z" fill="#1565C0"/>
<path id="Vector_4" d="M40.7385 43.1244C34.1629 45.3104 22.0515 44.6119 25.639 41.6763C23.8919 41.6763 21.3019 43.0806 21.3019 44.4311C21.3019 47.1392 34.4006 49.2304 44.0956 45.2652L40.7385 43.1244Z" fill="#1565C0"/>
<path id="Vector_5" d="M27.2504 47.7444C24.8646 47.7444 23.3202 49.2815 23.3202 50.4015C23.3202 53.8883 37.5535 54.2398 43.1929 50.7004L39.6083 48.3204C35.3952 50.1725 24.8121 50.4277 27.2504 47.7444Z" fill="#1565C0"/>
<path id="Vector_6" d="M52.9098 53.4215C52.9098 52.0565 51.3712 51.4134 50.82 51.1057C54.0692 58.9413 18.2744 58.3332 18.2744 53.7074C18.2744 52.6559 20.9096 51.6263 23.345 52.1134L21.2742 50.8899C16.4208 50.1286 13.125 52.2622 13.125 53.983C13.125 62.0082 52.9098 61.6217 52.9098 53.4215Z" fill="#1565C0"/>
<path id="Vector_7" d="M56.875 56.2974C50.8287 62.2692 35.4973 64.4451 20.0798 60.7555C35.4973 67.3224 56.8021 63.624 56.875 56.2974Z" fill="#1565C0"/>
</g>
</g>
</svg>
