<svg width="50" height="50" viewBox="0 0 50 50" fill="none" xmlns="http://www.w3.org/2000/svg">
<g id="LinkedinLogo">
<path id="Vector" d="M42.1875 4.6875H7.8125C6.9837 4.6875 6.18884 5.01674 5.60279 5.60279C5.01674 6.18884 4.6875 6.9837 4.6875 7.8125V42.1875C4.6875 43.0163 5.01674 43.8112 5.60279 44.3972C6.18884 44.9833 6.9837 45.3125 7.8125 45.3125H42.1875C43.0163 45.3125 43.8112 44.9833 44.3972 44.3972C44.9833 43.8112 45.3125 43.0163 45.3125 42.1875V7.8125C45.3125 6.9837 44.9833 6.18884 44.3972 5.60279C43.8112 5.01674 43.0163 4.6875 42.1875 4.6875ZM42.1875 42.1875H7.8125V7.8125H42.1875V42.1875ZM18.75 21.875V34.375C18.75 34.7894 18.5854 35.1868 18.2924 35.4799C17.9993 35.7729 17.6019 35.9375 17.1875 35.9375C16.7731 35.9375 16.3757 35.7729 16.0826 35.4799C15.7896 35.1868 15.625 34.7894 15.625 34.375V21.875C15.625 21.4606 15.7896 21.0632 16.0826 20.7701C16.3757 20.4771 16.7731 20.3125 17.1875 20.3125C17.6019 20.3125 17.9993 20.4771 18.2924 20.7701C18.5854 21.0632 18.75 21.4606 18.75 21.875ZM35.9375 27.3438V34.375C35.9375 34.7894 35.7729 35.1868 35.4799 35.4799C35.1868 35.7729 34.7894 35.9375 34.375 35.9375C33.9606 35.9375 33.5632 35.7729 33.2701 35.4799C32.9771 35.1868 32.8125 34.7894 32.8125 34.375V27.3438C32.8125 26.3077 32.4009 25.3142 31.6684 24.5816C30.9358 23.8491 29.9423 23.4375 28.9062 23.4375C27.8702 23.4375 26.8767 23.8491 26.1441 24.5816C25.4116 25.3142 25 26.3077 25 27.3438V34.375C25 34.7894 24.8354 35.1868 24.5424 35.4799C24.2493 35.7729 23.8519 35.9375 23.4375 35.9375C23.0231 35.9375 22.6257 35.7729 22.3326 35.4799C22.0396 35.1868 21.875 34.7894 21.875 34.375V21.875C21.8769 21.4923 22.0193 21.1236 22.275 20.8388C22.5308 20.5541 22.8821 20.3731 23.2624 20.3302C23.6428 20.2874 24.0256 20.3856 24.3383 20.6062C24.651 20.8269 24.8719 21.1547 24.959 21.5273C26.016 20.8103 27.2483 20.3947 28.5237 20.3252C29.7991 20.2557 31.0693 20.535 32.198 21.1329C33.3266 21.7309 34.2711 22.625 34.9299 23.7192C35.5887 24.8135 35.9371 26.0665 35.9375 27.3438ZM19.5312 16.4062C19.5312 16.8698 19.3938 17.3229 19.1363 17.7084C18.8787 18.0938 18.5127 18.3942 18.0844 18.5716C17.6561 18.749 17.1849 18.7954 16.7303 18.705C16.2756 18.6145 15.858 18.3913 15.5302 18.0635C15.2024 17.7358 14.9792 17.3181 14.8888 16.8635C14.7984 16.4089 14.8448 15.9376 15.0222 15.5093C15.1996 15.0811 15.5 14.715 15.8854 14.4575C16.2708 14.2 16.724 14.0625 17.1875 14.0625C17.8091 14.0625 18.4052 14.3094 18.8448 14.749C19.2843 15.1885 19.5312 15.7846 19.5312 16.4062Z" fill="white"/>
</g>
</svg>
