<svg width="" height="" viewBox="0 0 70 70" fill="none" xmlns="http://www.w3.org/2000/svg">
<g id="Frame">
<path id="Vector" d="M8.75 14.5833C8.75 11.3619 11.3619 8.75 14.5833 8.75H55.4167C58.6381 8.75 61.25 11.3619 61.25 14.5833V55.4167C61.25 58.6381 58.6381 61.25 55.4167 61.25H14.5833C11.3619 61.25 8.75 58.6381 8.75 55.4167V14.5833Z" fill="#03A9F4"/>
<path id="Vector_2" d="M29.19 27.9619H26.2704V34.4282H29.1477C29.9454 34.4282 30.5623 34.1671 30.9998 33.645C31.4373 33.123 31.6546 32.3632 31.6546 31.3657C31.6546 30.3302 31.4314 29.5077 30.9852 28.8952C30.5389 28.2827 29.9396 27.9721 29.19 27.9619Z" fill="#020F16"/>
<path id="Vector_3" d="M13.125 13.125V56.875H56.875V13.125H13.125ZM34.074 36.1506C32.8694 37.329 31.1981 37.9167 29.0617 37.9167H26.2704V45.2083H22.0835V24.4723H29.1477C31.1981 24.4723 32.8344 25.1096 34.0535 26.3812C35.2727 27.6529 35.8838 29.3052 35.8838 31.3367C35.8838 33.3681 35.28 34.9723 34.074 36.1506ZM47.6612 44.24C46.6273 45.0756 45.2681 45.4927 43.5881 45.4927C42.4579 45.4927 41.4604 45.2725 40.5971 44.8306C39.7337 44.3887 39.0556 43.7733 38.5671 42.9858C38.0785 42.1983 37.8335 41.3481 37.8335 40.4367H41.6646C41.685 41.1381 41.8469 41.666 42.156 42.0175C42.4652 42.369 42.9698 42.544 43.6727 42.544C44.7548 42.544 45.2958 42.0554 45.2958 41.0769C45.2958 40.7356 45.1325 40.4192 44.8044 40.1304C44.4762 39.8417 43.75 39.4508 42.6198 38.9565C40.9587 38.2827 39.8169 37.5856 39.1942 36.8623C38.5715 36.139 38.2608 35.2435 38.2608 34.1702C38.2608 32.8212 38.7479 31.7085 39.7206 30.8306C40.6933 29.9527 41.984 29.5138 43.5867 29.5138C45.2754 29.5138 46.6287 29.9512 47.6452 30.8233C48.6617 31.6954 49.1692 32.8694 49.1692 34.3408H45.1383C45.1383 33.0881 44.6177 32.461 43.5721 32.461C43.1448 32.461 42.7948 32.5937 42.5177 32.8592C42.2406 33.1246 42.105 33.4965 42.105 33.9704C42.105 34.3117 42.2567 34.6135 42.5615 34.8746C42.8662 35.1356 43.5808 35.509 44.7125 35.9931C46.356 36.6012 47.5154 37.2779 48.195 38.0231C48.8746 38.7683 49.2129 39.7352 49.2129 40.9208C49.2129 42.299 48.6952 43.4044 47.6612 44.24Z" fill="#020F16"/>
</g>
</svg>
