<svg width="" height="" viewBox="0 0 70 70" fill="none" xmlns="http://www.w3.org/2000/svg">
<g id="Frame">
<path id="Vector" d="M35.0685 7.29161C32.8008 7.2989 31.2288 7.49869 29.3285 7.82682C23.7169 8.8039 22.6946 10.8558 22.6946 14.6372V20.4166H35.8196V23.3333H22.1958H15.8521C12.0079 23.3333 8.64354 25.1445 7.5775 29.486C6.37292 34.4691 6.31896 37.5899 7.5775 42.7933C8.53271 46.6739 10.6371 49.5833 14.4827 49.5833H19.7794V42.1399C19.7794 37.8145 23.6965 33.5416 28.1852 33.5416H38.7377C42.4171 33.5416 46.0294 30.8262 46.0294 27.1585V14.6372C46.0294 11.0804 43.4642 8.42036 39.8781 7.8239C39.9671 7.81515 37.3173 7.28286 35.0685 7.29161ZM27.8002 13.1249C28.9975 13.1249 29.9877 14.1122 29.9877 15.3154C29.9877 16.5302 28.9975 17.4999 27.8002 17.4999C26.5796 17.4999 25.6127 16.5316 25.6127 15.3154C25.6127 14.1166 26.5796 13.1249 27.8002 13.1249Z" fill="#0277BD"/>
<path id="Vector_2" d="M33.6554 62.7082C35.9231 62.7009 37.4952 62.5011 39.3954 62.173C45.0071 61.1959 46.0294 59.144 46.0294 55.3625V49.5832H32.9044V46.6665H46.5296H52.8733C56.7175 46.6665 60.0819 44.8553 61.1479 40.5138C62.3525 35.5307 62.4065 32.4098 61.1479 27.2065C60.1912 23.3259 58.0869 20.4165 54.2412 20.4165H48.9446V27.8598C48.9446 32.1853 45.0275 36.4582 40.5387 36.4582H29.9862C26.3069 36.4582 22.6946 39.1736 22.6946 42.8413V55.3625C22.6946 58.9194 25.2598 61.5794 28.8458 62.1759C28.7569 62.1846 31.4067 62.7169 33.6554 62.7082ZM40.9252 56.8748C39.7279 56.8748 38.7377 55.8875 38.7377 54.6844C38.7377 53.4696 39.7279 52.4998 40.9252 52.4998C42.1458 52.4998 43.1127 53.4682 43.1127 54.6844C43.1127 55.8832 42.1444 56.8748 40.9252 56.8748Z" fill="#FFC107"/>
</g>
</svg>
