<svg width="50" height="50" viewBox="0 0 50 50" fill="none" xmlns="http://www.w3.org/2000/svg">
<g id="TiktokLogo">
<path id="Vector" d="M43.75 14.0625C41.2644 14.0599 38.8813 13.0714 37.1237 11.3138C35.3661 9.55618 34.3776 7.17311 34.375 4.6875C34.375 4.2731 34.2104 3.87567 33.9174 3.58265C33.6243 3.28962 33.2269 3.125 32.8125 3.125H25C24.5856 3.125 24.1882 3.28962 23.8951 3.58265C23.6021 3.87567 23.4375 4.2731 23.4375 4.6875V30.4688C23.4372 31.1677 23.2493 31.8538 22.8935 32.4555C22.5376 33.0571 22.0269 33.5523 21.4145 33.8893C20.8021 34.2263 20.1105 34.3928 19.4118 34.3714C18.7132 34.35 18.033 34.1416 17.4424 33.7678C16.8517 33.394 16.3722 32.8686 16.0538 32.2463C15.7354 31.624 15.5898 30.9277 15.6322 30.23C15.6746 29.5323 15.9034 28.8588 16.2948 28.2797C16.6862 27.7005 17.2259 27.237 17.8574 26.9375C18.1246 26.8107 18.3503 26.6107 18.5083 26.3607C18.6663 26.1108 18.7501 25.8211 18.75 25.5254V17.1875C18.7501 16.9591 18.7001 16.7335 18.6036 16.5265C18.5071 16.3195 18.3663 16.1361 18.1913 15.9894C18.0163 15.8427 17.8112 15.7361 17.5905 15.6772C17.3698 15.6183 17.1389 15.6085 16.9141 15.6484C9.94336 16.8906 4.6875 23.2617 4.6875 30.4688C4.6875 34.4056 6.25139 38.1811 9.03513 40.9649C11.8189 43.7486 15.5944 45.3125 19.5312 45.3125C23.4681 45.3125 27.2436 43.7486 30.0274 40.9649C32.8111 38.1811 34.375 34.4056 34.375 30.4688V22.7129C37.2689 24.2227 40.486 25.0076 43.75 25C44.1644 25 44.5618 24.8354 44.8549 24.5424C45.1479 24.2493 45.3125 23.8519 45.3125 23.4375V15.625C45.3125 15.2106 45.1479 14.8132 44.8549 14.5201C44.5618 14.2271 44.1644 14.0625 43.75 14.0625ZM42.1875 21.8047C39.1341 21.5341 36.2103 20.4444 33.7246 18.6504C33.491 18.4824 33.2155 18.3822 32.9286 18.3609C32.6416 18.3395 32.3543 18.3978 32.0984 18.5293C31.8425 18.6608 31.6278 18.8604 31.4781 19.1061C31.3284 19.3518 31.2495 19.6341 31.25 19.9219V30.4688C31.25 33.5768 30.0153 36.5575 27.8177 38.7552C25.62 40.9528 22.6393 42.1875 19.5312 42.1875C16.4232 42.1875 13.4425 40.9528 11.2448 38.7552C9.04715 36.5575 7.8125 33.5768 7.8125 30.4688C7.8125 25.4102 11.0625 20.873 15.625 19.2188V24.623C14.6149 25.2979 13.797 26.223 13.2508 27.308C12.7046 28.3931 12.4489 29.6012 12.5085 30.8145C12.5681 32.0278 12.941 33.2049 13.591 34.2312C14.2409 35.2575 15.1456 36.0979 16.217 36.6705C17.2883 37.2431 18.4898 37.5284 19.7042 37.4985C20.9186 37.4686 22.1045 37.1246 23.1464 36.5001C24.1883 35.8755 25.0506 34.9916 25.6493 33.9346C26.248 32.8776 26.5626 31.6835 26.5625 30.4688V6.25H31.3477C31.699 9.00211 32.9541 11.5597 34.916 13.5216C36.8778 15.4834 39.4354 16.7385 42.1875 17.0898V21.8047Z" fill="white"/>
</g>
</svg>
